<svg width="210" height="745" viewBox="0 0 210 745" fill="none" xmlns="http://www.w3.org/2000/svg">
<path d="M102.945 741.751C106.819 729.724 113.784 693.927 110.659 646.958C107.534 599.989 75.8785 562.969 60.4412 550.33C47.8021 541.768 19.2826 530.454 6.31729 553.694C-6.64799 576.933 21.5046 592.732 37.2016 597.727C5.39993 603.108 2.34208 624.636 4.78836 634.727C12.8611 671.176 58.5046 651.341 80.3172 636.867C119.458 595.525 119.458 565.415 114.565 555.528C102.576 526.173 106.966 482.675 110.659 464.595C125.773 412.186 112.487 377.144 103.956 366.174C101.01 361.197 96.0941 347.404 99.9943 332.047C104.87 312.85 136.559 319.249 129.551 329.914C123.944 338.446 116.245 322.499 113.097 313.46C116.266 291.521 121.324 294.568 123.457 298.834C111.269 309.803 103.346 302.592 100.908 297.615C94.3267 284.695 109.948 276.996 118.582 274.762C113.706 270.618 110.253 259.018 109.136 253.737C110.05 246.809 114.438 233.638 124.676 236.368C134.914 239.099 134.426 247.054 132.903 250.69C119.739 265.072 106.089 256.682 100.908 250.69C92.1328 234.114 107.612 231.798 116.449 232.712C109.44 233.728 96.0331 232.285 98.4708 218.391C100.908 204.496 116.956 198.788 124.676 197.67C201.462 191.089 211.518 208.741 206.947 218.391C188.665 236.673 144.482 222.555 124.676 213.21C110.354 201.632 87.1966 163.969 109.136 105.953C121.817 72.4172 122.892 45.7504 119.776 27" stroke="#E9B7B0" stroke-width="4.26593" stroke-linecap="round" stroke-dasharray="8.53 8.53"/>
<path d="M133.725 0C141.051 0 147 5.75093 147 13C147 20.1524 141.051 25.9758 133.725 25.9758C130.16 25.9758 126.842 24.6227 124.334 22.1822L117.5 16.2379L110.543 22.303C108.158 24.6468 104.815 26 101.275 26C93.9492 26 88 20.1524 88 13C88 5.84758 93.9492 0 101.275 0C104.815 0 108.158 1.35316 110.666 3.81784L117.5 9.76208L124.457 3.69703C126.842 1.35316 130.185 0 133.725 0ZM107.175 18.7751L113.812 13L107.273 7.32156C105.602 5.67844 103.512 4.83271 101.275 4.83271C96.6779 4.83271 92.9167 8.48141 92.9167 13C92.9167 17.5186 96.6779 21.1673 101.275 21.1673C103.512 21.1673 105.602 20.3216 107.175 18.7751ZM127.825 7.22491L121.187 13L127.727 18.6784C129.398 20.3216 131.512 21.1673 133.725 21.1673C138.322 21.1673 142.083 17.5186 142.083 13C142.083 8.48141 138.322 4.83271 133.725 4.83271C131.488 4.83271 129.398 5.67844 127.825 7.22491Z" fill="#E9B7B0"/>
<rect x="82" y="720" width="46" height="25" fill="#FFE3DF"/>
<path d="M107 739.35L105.55 738.03C100.4 733.36 97 730.27 97 726.5C97 723.41 99.42 721 102.5 721C104.24 721 105.91 721.81 107 723.08C108.09 721.81 109.76 721 111.5 721C114.58 721 117 723.41 117 726.5C117 730.27 113.6 733.36 108.45 738.03L107 739.35Z" fill="#EF9696"/>
<path d="M97.3065 732.972C97.3065 733.108 97.418 733.267 97.4823 733.383C97.5535 733.511 97.7608 733.746 97.7755 733.871C97.7829 733.934 97.8793 734.066 97.9123 734.126C97.9819 734.251 98.0491 734.372 98.1186 734.497C98.4885 735.163 98.8306 735.908 99.378 736.456C99.6437 736.721 99.8703 737.104 100.184 737.313C100.331 737.411 100.498 737.614 100.629 737.741C100.806 737.913 101.007 738.033 101.196 738.193C101.56 738.501 101.947 738.635 102.349 738.835" stroke="#E9B7B0" stroke-width="2" stroke-linecap="round"/>
<path d="M118.112 723.132C118.133 723.234 118.281 723.383 118.337 723.472C118.406 723.581 118.47 723.718 118.552 723.818C118.652 723.94 118.697 724.137 118.747 724.286C118.847 724.584 118.982 724.898 119.029 725.209C119.08 725.544 119.135 725.897 119.202 726.232C119.278 726.612 119.266 727.05 119.266 727.437C119.266 727.708 119.284 727.957 119.209 728.216C119.135 728.468 119.073 728.724 118.955 728.959C118.914 729.042 118.834 729.19 118.834 729.277" stroke="#E9B7B0" stroke-width="2" stroke-linecap="round"/>
<path d="M117.622 731.614C117.444 731.636 117.288 731.986 117.188 732.104C117.06 732.252 116.968 732.449 116.862 732.614C116.788 732.73 116.658 732.959 116.538 733.027C116.492 733.054 116.435 733.141 116.41 733.187C116.358 733.285 116.267 733.351 116.208 733.446C116.118 733.592 115.987 733.713 115.891 733.857C115.776 734.03 115.606 734.173 115.516 734.354" stroke="#E9B7B0" stroke-width="2" stroke-linecap="round"/>
<path d="M102.672 723.377C101.727 722.536 100.445 723.254 99.767 724.055C99.4224 724.463 99.1606 724.879 99.0394 725.394C98.984 725.63 99.0032 725.875 99.0032 726.117C99.0032 726.315 99.0961 726.486 99.0961 726.674" stroke="#E9B7B0" stroke-width="2" stroke-linecap="round"/>
</svg>
