<svg width="210" height="745" viewBox="0 0 210 745" fill="none" xmlns="http://www.w3.org/2000/svg">
<path d="M102.945 741.751C106.819 729.724 113.784 693.927 110.659 646.958C107.534 599.989 75.8785 562.969 60.4412 550.33C47.8021 541.768 19.2826 530.454 6.31729 553.694C-6.64799 576.933 21.5046 592.732 37.2016 597.727C5.39993 603.108 2.34208 624.636 4.78836 634.727C12.8611 671.176 58.5046 651.341 80.3172 636.867C119.458 595.525 119.458 565.415 114.565 555.528C102.576 526.173 106.966 482.675 110.659 464.595C125.773 412.186 112.487 377.144 103.956 366.174C101.01 361.197 96.0941 347.404 99.9943 332.047C104.87 312.85 136.559 319.249 129.551 329.914C123.944 338.446 116.245 322.499 113.097 313.46C116.266 291.521 121.324 294.568 123.457 298.834C111.269 309.803 103.346 302.592 100.908 297.615C94.3267 284.695 109.948 276.996 118.582 274.762C113.706 270.618 110.253 259.018 109.136 253.737C110.05 246.809 114.438 233.638 124.676 236.368C134.914 239.099 134.426 247.054 132.903 250.69C119.739 265.072 106.089 256.682 100.908 250.69C92.1328 234.114 107.612 231.798 116.449 232.712C109.44 233.728 96.0331 232.285 98.4708 218.391C100.908 204.496 116.956 198.788 124.676 197.67C201.462 191.089 211.518 208.741 206.947 218.391C188.665 236.673 144.482 222.555 124.676 213.21C110.354 201.632 87.1966 163.969 109.136 105.953C121.817 72.4172 122.892 45.7504 119.776 27" stroke="#E9B7B0" stroke-width="4.26593" stroke-linecap="round" stroke-dasharray="8.53 8.53"/>
<path d="M133.725 0C141.051 0 147 5.75093 147 13C147 20.1524 141.051 25.9758 133.725 25.9758C130.16 25.9758 126.842 24.6227 124.334 22.1822L117.5 16.2379L110.543 22.303C108.158 24.6468 104.815 26 101.275 26C93.9492 26 88 20.1524 88 13C88 5.84758 93.9492 0 101.275 0C104.815 0 108.158 1.35316 110.666 3.81784L117.5 9.76208L124.457 3.69703C126.842 1.35316 130.185 0 133.725 0ZM107.175 18.7751L113.812 13L107.273 7.32156C105.602 5.67844 103.512 4.83271 101.275 4.83271C96.6779 4.83271 92.9167 8.48141 92.9167 13C92.9167 17.5186 96.6779 21.1673 101.275 21.1673C103.512 21.1673 105.602 20.3216 107.175 18.7751ZM127.825 7.22491L121.187 13L127.727 18.6784C129.398 20.3216 131.512 21.1673 133.725 21.1673C138.322 21.1673 142.083 17.5186 142.083 13C142.083 8.48141 138.322 4.83271 133.725 4.83271C131.488 4.83271 129.398 5.67844 127.825 7.22491Z" fill="#E9B7B0"/>
<rect x="82" y="720" width="46" height="25" fill="#FFE3DF"/>
<path d="M109.268 721L110.718 722.32C115.868 726.99 119.268 730.08 119.268 733.85C119.268 736.94 116.848 739.35 113.768 739.35C112.028 739.35 110.358 738.54 109.268 737.27C108.178 738.54 106.508 739.35 104.768 739.35C101.688 739.35 99.2681 736.94 99.2681 733.85C99.2681 730.08 102.668 726.99 107.818 722.32L109.268 721Z" fill="#EF9696"/>
<path d="M118.962 727.378C118.962 727.242 118.85 727.083 118.786 726.967C118.715 726.839 118.507 726.604 118.493 726.479C118.485 726.416 118.389 726.284 118.356 726.224C118.286 726.099 118.219 725.978 118.15 725.853C117.78 725.187 117.438 724.442 116.89 723.894C116.624 723.629 116.398 723.246 116.084 723.037C115.937 722.938 115.77 722.736 115.639 722.609C115.463 722.437 115.261 722.317 115.073 722.157C114.709 721.849 114.321 721.715 113.919 721.515" stroke="#E9B7B0" stroke-width="2" stroke-linecap="round"/>
<path d="M98.1557 737.218C98.1353 737.116 97.9874 736.967 97.9313 736.878C97.8621 736.769 97.7981 736.632 97.7165 736.532C97.6165 736.41 97.5707 736.213 97.521 736.064C97.4215 735.766 97.286 735.452 97.2389 735.141C97.1881 734.806 97.1328 734.453 97.0658 734.118C96.9898 733.738 97.0017 733.3 97.0017 732.913C97.0017 732.642 96.9844 732.393 97.0594 732.134C97.1327 731.882 97.1948 731.626 97.3127 731.391C97.3539 731.308 97.4345 731.16 97.4345 731.073" stroke="#E9B7B0" stroke-width="2" stroke-linecap="round"/>
<path d="M98.6462 728.736C98.8246 728.714 98.9798 728.363 99.0805 728.246C99.2078 728.097 99.3001 727.901 99.4059 727.736C99.4805 727.62 99.6103 727.391 99.7296 727.323C99.7758 727.296 99.8332 727.209 99.8579 727.162C99.9099 727.065 100.001 726.999 100.06 726.904C100.15 726.758 100.281 726.637 100.377 726.493C100.492 726.32 100.662 726.177 100.752 725.996" stroke="#E9B7B0" stroke-width="2" stroke-linecap="round"/>
<path d="M113.596 736.973C114.542 737.814 115.823 737.096 116.501 736.295C116.846 735.887 117.107 735.471 117.229 734.956C117.284 734.72 117.265 734.475 117.265 734.233C117.265 734.035 117.172 733.864 117.172 733.676" stroke="#E9B7B0" stroke-width="2" stroke-linecap="round"/>
</svg>
